<?xml version="1.0" encoding="UTF-8"?>
<svg version="1.1" xmlns="http://www.w3.org/2000/svg" width="1387" height="336">
<path d="M0 0 C457.71 0 915.42 0 1387 0 C1387 110.88 1387 221.76 1387 336 C929.29 336 471.58 336 0 336 C0 225.12 0 114.24 0 0 Z " fill="#D2D3D5" transform="translate(0,0)"/>
<path d="M0 0 C457.71 0 915.42 0 1387 0 C1387 42.24 1387 84.48 1387 128 C1383.37 128 1379.74 128 1376 128 C1376 119.75 1376 111.5 1376 103 C1377.98 103 1379.96 103 1382 103 C1382 101.02 1382 99.04 1382 97 C1368.8 97 1355.6 97 1342 97 C1342 84.79 1342 72.58 1342 60 C1338.04 60 1334.08 60 1330 60 C1330 55.05 1330 50.1 1330 45 C1331.32 45 1332.64 45 1334 45 C1333.97720863 40.91542868 1333.89991093 36.83365935 1333.8125 32.75 C1333.80379883 31.01169922 1333.80379883 31.01169922 1333.79492188 29.23828125 C1333.79527591 22.67407568 1333.79527591 22.67407568 1330.63671875 17.19921875 C1327.20599961 15.63887686 1325.5755388 15.88264412 1322 17 C1319.29071185 18.10887544 1319.29071185 18.10887544 1317 20 C1316.22098686 22.68827386 1316.22098686 22.68827386 1316.29296875 25.76171875 C1316.24946289 27.43911133 1316.24946289 27.43911133 1316.20507812 29.15039062 C1316.19927734 30.31763672 1316.19347656 31.48488281 1316.1875 32.6875 C1316.16236328 33.86634766 1316.13722656 35.04519531 1316.11132812 36.25976562 C1316.0523454 39.173512 1316.01614629 42.08575228 1316 45 C1317.32 45 1318.64 45 1320 45 C1320 49.62 1320 54.24 1320 59 C1316.7 59 1313.4 59 1310 59 C1310 50.75 1310 42.5 1310 34 C1300.43 34 1290.86 34 1281 34 C1281 42.25 1281 50.5 1281 59 C1278.69 59 1276.38 59 1274 59 C1274 107.18 1274 155.36 1274 205 C1260.8 205 1247.6 205 1234 205 C1234 222.16 1234 239.32 1234 257 C1230.37 257 1226.74 257 1223 257 C1223 261.29 1223 265.58 1223 270 C1216.4 270 1209.8 270 1203 270 C1203 251.85 1203 233.7 1203 215 C1201.35 215 1199.7 215 1198 215 C1198 211.37 1198 207.74 1198 204 C1192.39 204 1186.78 204 1181 204 C1181 207.63 1181 211.26 1181 215 C1178.36 215 1175.72 215 1173 215 C1173 213.02 1173 211.04 1173 209 C1172.01 209 1171.02 209 1170 209 C1169.938125 207.906875 1169.87625 206.81375 1169.8125 205.6875 C1169.35816336 201.94222515 1169.35816336 201.94222515 1166.8125 200 C1162.74849172 198.55501928 1159.8306575 199.4246505 1155.8125 200.6875 C1154 201 1154 201 1151 199 C1148.69 199.33 1146.38 199.66 1144 200 C1143.67 204.95 1143.34 209.9 1143 215 C1142.01 215 1141.02 215 1140 215 C1140 233.48 1140 251.96 1140 271 C1138.35 271 1136.7 271 1135 271 C1135 261.43 1135 251.86 1135 242 C1133.35 242 1131.7 242 1130 242 C1130 221.87 1130 201.74 1130 181 C1128.02 181 1126.04 181 1124 181 C1124 176.71 1124 172.42 1124 168 C1116.08 168 1108.16 168 1100 168 C1100 172.29 1100 176.58 1100 181 C1092.08 181 1084.16 181 1076 181 C1076 212.35 1076 243.7 1076 276 C1072.37 276 1068.74 276 1065 276 C1065 264.45 1065 252.9 1065 241 C1063.68 241 1062.36 241 1061 241 C1061 221.2 1061 201.4 1061 181 C1058.36 181 1055.72 181 1053 181 C1053 176.71 1053 172.42 1053 168 C1050.36 168 1047.72 168 1045 168 C1044.67 165.03 1044.34 162.06 1044 159 C1039.66072031 157.16304566 1039.66072031 157.16304566 1035.125 157.875 C1034.42375 158.24625 1033.7225 158.6175 1033 159 C1032.67 161.31 1032.34 163.62 1032 166 C1029.36 166 1026.72 166 1024 166 C1024 170.95 1024 175.9 1024 181 C1019.05 181 1014.1 181 1009 181 C1009 182.32 1009 183.64 1009 185 C1007.02 185 1005.04 185 1003 185 C1003 194.9 1003 204.8 1003 215 C1001.35 215 999.7 215 998 215 C998 162.86 998 110.72 998 57 C995.36 57 992.72 57 990 57 C990 55.02 990 53.04 990 51 C983.73 51 977.46 51 971 51 C971 45.39 971 39.78 971 34 C967.37 34 963.74 34 960 34 C959.938125 31.3703125 959.938125 31.3703125 959.875 28.6875 C959.54930888 24.01990707 959.54930888 24.01990707 956.3125 20.75 C951.87611443 19.74553534 948.96235742 20.41659644 944.6875 21.6875 C942.66035644 22.98237464 942.66035644 22.98237464 942.25 26.125 C942.1675 27.07375 942.085 28.0225 942 29 C939.36 29 936.72 29 934 29 C934 36.59 934 44.18 934 52 C930.7 52 927.4 52 924 52 C924 84.01 924 116.02 924 149 C917.73 149 911.46 149 905 149 C905 154.28 905 159.56 905 165 C900.05 165 895.1 165 890 165 C890 159.06 890 153.12 890 147 C885.96136529 149.36588797 881.9228252 151.73193597 877.88452148 154.09838867 C876.51218049 154.90251873 875.13978537 155.70655642 873.76733398 156.51049805 C871.78875544 157.66951304 869.81037509 158.8288657 867.83203125 159.98828125 C867.22349808 160.34465164 866.6149649 160.70102203 865.98799133 161.06819153 C863.45702326 162.55183975 860.99579784 164.00311137 858.63549805 165.75073242 C856 167 856 167 847 167 C847 185.15 847 203.3 847 222 C841.06 222 835.12 222 829 222 C829 223.98 829 225.96 829 228 C825.7 228 822.4 228 819 228 C819 231.96 819 235.92 819 240 C816.69 240 814.38 240 812 240 C812 236.37 812 232.74 812 229 C805.07 229 798.14 229 791 229 C791 242.53 791 256.06 791 270 C789.35 270 787.7 270 786 270 C786 251.85 786 233.7 786 215 C784.68 215 783.36 215 782 215 C782 203.78 782 192.56 782 181 C780.68 181 779.36 181 778 181 C778.00169189 179.97229492 778.00169189 179.97229492 778.00341797 178.92382812 C777.99121817 175.78158368 777.93345044 172.64171095 777.875 169.5 C777.87886719 167.88351563 777.87886719 167.88351563 777.8828125 166.234375 C777.71688682 159.43142231 776.79035262 156.04055477 772.33154297 150.93945312 C769.89838648 147.39544962 770.36185157 143.64290094 770.625 139.5 C770.65207031 138.67757812 770.67914062 137.85515625 770.70703125 137.0078125 C770.77693003 135.00404746 770.88451988 133.00165545 771 131 C769.60416667 130.79166667 768.20833333 130.58333333 766.8125 130.375 C766.03519531 130.25898438 765.25789062 130.14296875 764.45703125 130.0234375 C761.55177596 129.99572441 759.61360497 130.78372202 757 132 C757.04640625 133.134375 757.0928125 134.26875 757.140625 135.4375 C757.5621892 150.29928462 757.5621892 150.29928462 753 157 C752.67 157 752.34 157 752 157 C752 151.72 752 146.44 752 141 C744.08 141 736.16 141 728 141 C728 146.28 728 151.56 728 157 C726.68 157 725.36 157 724 157 C724 176.14 724 195.28 724 215 C722.68 215 721.36 215 720 215 C720 223.58 720 232.16 720 241 C718.35 241 716.7 241 715 241 C715 232.42 715 223.84 715 215 C714.01 215 713.02 215 712 215 C712 203.78 712 192.56 712 181 C710.02 181 708.04 181 706 181 C706 177.04 706 173.08 706 169 C698.08 169 690.16 169 682 169 C682 172.96 682 176.92 682 181 C673.75 181 665.5 181 657 181 C657 186.61 657 192.22 657 198 C655.68 198.66 654.36 199.32 653 200 C653 204.95 653 209.9 653 215 C649.04 215 645.08 215 641 215 C641 175.4 641 135.8 641 95 C639.02 95 637.04 95 635 95 C635 88.07 635 81.14 635 74 C627.08 74 619.16 74 611 74 C611 80.6 611 87.2 611 94 C603.08 94 595.16 94 587 94 C587 134.59 587 175.18 587 217 C584.36 217 581.72 217 579 217 C579 188.95 579 160.9 579 132 C579.66 132 580.32 132 581 132 C581 130.02 581 128.04 581 126 C578.36 126 575.72 126 573 126 C573 120.06 573 114.12 573 108 C569.7 108 566.4 108 563 108 C563 104.04 563 100.08 563 96 C555.49511575 93.28404299 555.49511575 93.28404299 547.6875 93.75 C544.39693152 96.50489454 544.50445072 97.53491959 544.125 101.6875 C544.08375 103.440625 544.0425 105.19375 544 107 C540.04 107 536.08 107 532 107 C532 113.6 532 120.2 532 127 C525.73 127 519.46 127 513 127 C513 128.65 513 130.3 513 132 C510.03 132 507.06 132 504 132 C504 163.35 504 194.7 504 227 C502.35 227 500.7 227 499 227 C499 211.82 499 196.64 499 181 C495.7 181 492.4 181 489 181 C489 178.36 489 175.72 489 173 C490.32 173 491.64 173 493 173 C492.94014621 170.70759993 492.85140973 168.41593794 492.75 166.125 C492.70359375 164.84882813 492.6571875 163.57265625 492.609375 162.2578125 C492.36085914 158.95594468 492.36085914 158.95594468 490.1484375 157.53515625 C486.5404371 156.63643615 483.29046193 157.35476904 480 159 C479.52998967 162.27555608 479.52998967 162.27555608 479.375 166.0625 C479.30023438 167.35285156 479.22546875 168.64320313 479.1484375 169.97265625 C479.09945313 170.97167969 479.05046875 171.97070312 479 173 C479.99 173 480.98 173 482 173 C482 175.64 482 178.28 482 181 C479.36 181 476.72 181 474 181 C474 175.72 474 170.44 474 165 C470.7 165 467.4 165 464 165 C464 142.89 464 120.78 464 98 C455.42 98 446.84 98 438 98 C438 90.74 438 83.48 438 76 C430.08 76 422.16 76 414 76 C414 83.26 414 90.52 414 98 C412.68 98 411.36 98 410 98 C410 103.94 410 109.88 410 116 C404.39 116 398.78 116 393 116 C393 122.27 393 128.54 393 135 C391.68 135 390.36 135 389 135 C389 103.32 389 71.64 389 39 C383.72 39 378.44 39 373 39 C373.00902344 37.27652344 373.01804687 35.55304687 373.02734375 33.77734375 C372.99919596 31.4973729 372.96914804 29.21742495 372.9375 26.9375 C372.94845703 25.80376953 372.95941406 24.67003906 372.97070312 23.50195312 C372.85494295 17.8297044 372.66847411 13.90332498 368.69140625 9.62890625 C366.98901653 7.92671666 366.98901653 7.92671666 365 7 C361.79375521 7.25822623 360.00554877 8.47083904 357.8046875 10.75390625 C353.65064638 15.86868376 354.11062617 21.61660737 354.125 27.9375 C354.104375 29.09830078 354.08375 30.25910156 354.0625 31.45507812 C354.01561938 34.30307578 354.00426085 37.15161971 354 40 C349.05 40 344.1 40 339 40 C339 41.98 339 43.96 339 46 C336.69 46 334.38 46 332 46 C332 119.92 332 193.84 332 270 C320.45 270 308.9 270 297 270 C297 251.85 297 233.7 297 215 C295.35 215 293.7 215 292 215 C292 183.32 292 151.64 292 119 C289.69 119 287.38 119 285 119 C285 117.35 285 115.7 285 114 C280.05 114 275.1 114 270 114 C270 107.4 270 100.8 270 94 C267.36 94 264.72 94 262 94 C262 90.04 262 86.08 262 82 C258.23570226 80 258.23570226 80 255 79 C252.22754427 79.82893132 252.22754427 79.82893132 250 82 C249.45537649 84.75320725 249.21066044 86.9314081 249.1875 89.6875 C249.16236328 90.38939453 249.13722656 91.09128906 249.11132812 91.81445312 C249.05255552 93.54236781 249.0233903 95.2712443 249 97 C246.69 97 244.38 97 242 97 C242 102.94 242 108.88 242 115 C238.7 115 235.4 115 232 115 C232 169.12 232 223.24 232 279 C229.69 279 227.38 279 225 279 C225 259.2 225 239.4 225 219 C225.66 219 226.32 219 227 219 C227 217.68 227 216.36 227 215 C225.02 215 223.04 215 221 215 C221 211.37 221 207.74 221 204 C214.73 204 208.46 204 202 204 C202 207.63 202 211.26 202 215 C198.7 215 195.4 215 192 215 C191.95101562 214.01257813 191.90203125 213.02515625 191.8515625 212.0078125 C191.73941406 210.08582031 191.73941406 210.08582031 191.625 208.125 C191.55539063 206.84882813 191.48578125 205.57265625 191.4140625 204.2578125 C191.32758894 200.91938301 191.32758894 200.91938301 189 199 C186.89410923 198.68136311 186.89410923 198.68136311 184.5625 198.75 C183.78003906 198.74484375 182.99757812 198.7396875 182.19140625 198.734375 C179.70955893 198.86823169 179.70955893 198.86823169 177 201 C176.34 200.34 175.68 199.68 175 199 C173.08993694 198.6823754 173.08993694 198.6823754 171 198.75 C170.29875 198.74484375 169.5975 198.7396875 168.875 198.734375 C166.7564331 198.84294485 166.7564331 198.84294485 165 201 C164.69940057 203.36509361 164.50484988 205.74441881 164.375 208.125 C164.26285156 210.04699219 164.26285156 210.04699219 164.1484375 212.0078125 C164.07496094 213.48894531 164.07496094 213.48894531 164 215 C162.68 215 161.36 215 160 215 C160 216.32 160 217.64 160 219 C160.66 219 161.32 219 162 219 C162 247.38 162 275.76 162 305 C159.69 305 157.38 305 155 305 C155 276.62 155 248.24 155 219 C155.66 219 156.32 219 157 219 C157 217.68 157 216.36 157 215 C155.02 215 153.04 215 151 215 C151 211.04 151 207.08 151 203 C145.06 203 139.12 203 133 203 C133 206.63 133 210.26 133 214 C129.37 214 125.74 214 122 214 C121.505 206.575 121.505 206.575 121 199 C119.411875 198.95875 117.82375 198.9175 116.1875 198.875 C115.29417969 198.85179687 114.40085937 198.82859375 113.48046875 198.8046875 C110.74597286 198.81714173 110.74597286 198.81714173 108 201 C107.34 200.34 106.68 199.68 106 199 C104.08993694 198.6823754 104.08993694 198.6823754 102 198.75 C101.29875 198.74484375 100.5975 198.7396875 99.875 198.734375 C97.7564331 198.84294485 97.7564331 198.84294485 96 201 C95.69940057 203.36509361 95.50484988 205.74441881 95.375 208.125 C95.26285156 210.04699219 95.26285156 210.04699219 95.1484375 212.0078125 C95.07496094 213.48894531 95.07496094 213.48894531 95 215 C94.01 215 93.02 215 92 215 C92 233.15 92 251.3 92 270 C90.35 270 88.7 270 87 270 C87 215.55 87 161.1 87 105 C87.66 105 88.32 105 89 105 C89 103.35 89 101.7 89 100 C86.36 100 83.72 100 81 100 C81 93.73 81 87.46 81 81 C71.76 81 62.52 81 53 81 C53 87.27 53 93.54 53 100 C43.43 100 33.86 100 24 100 C24 156.1 24 212.2 24 270 C20.04 270 16.08 270 12 270 C12 241.95 12 213.9 12 185 C12.66 185 13.32 185 14 185 C14 183.68 14 182.36 14 181 C11.69 181 9.38 181 7 181 C7 176.38 7 171.76 7 167 C4.69 167 2.38 167 0 167 C0 111.89 0 56.78 0 0 Z " fill="#FEFEFE" transform="translate(0,0)"/>
</svg>
