<svg version="1.2" xmlns="http://www.w3.org/2000/svg" viewBox="0 0 1387 336" width="1387" height="336">
	<title>Captura(2)</title>
	<style>
		.s0 { fill: #144725 } 
		.s1 { fill: #1c5e32 } 
	</style>
	<path class="s0" d="m-1 0c457.7 0 915.4 0 1387 0 0 110.9 0 221.8 0 336-457.7 0-915.4 0-1387 0 0-110.9 0-221.8 0-336z"/>
	<path class="s1" d="m0 0c457.7 0 915.4 0 1387 0 0 42.2 0 84.5 0 128-3.6 0-7.3 0-11 0 0-8.3 0-16.5 0-25q3 0 6 0 0-3 0-6c-13.2 0-26.4 0-40 0 0-12.2 0-24.4 0-37-4 0-7.9 0-12 0 0-4.9 0-9.9 0-15q2 0 4 0 0-6.1-0.2-12.3c0-1.7 0-1.7 0-3.5 0-6.5 0-6.5-3.2-12-3.4-1.6-5-1.3-8.6-0.2-2.7 1.1-2.7 1.1-5 3-0.8 2.7-0.8 2.7-0.7 5.8-0.1 1.6-0.1 1.6-0.1 3.4q0 1.7 0 3.5-0.1 1.7-0.1 3.6-0.1 4.3-0.1 8.7 2 0 4 0c0 4.6 0 9.2 0 14-3.3 0-6.6 0-10 0 0-8.2 0-16.5 0-25-9.6 0-19.1 0-29 0 0 8.3 0 16.5 0 25-2.3 0-4.6 0-7 0 0 48.2 0 96.4 0 146-13.2 0-26.4 0-40 0 0 17.2 0 34.3 0 52-3.6 0-7.3 0-11 0 0 4.3 0 8.6 0 13-6.6 0-13.2 0-20 0 0-18.1 0-36.3 0-55q-2.5 0-5 0c0-3.6 0-7.3 0-11-5.6 0-11.2 0-17 0 0 3.6 0 7.3 0 11-2.6 0-5.3 0-8 0q0-3 0-6-1.5 0-3 0-0.1-1.6-0.2-3.3c-0.4-3.8-0.4-3.8-3-5.7-4.1-1.4-7-0.6-11 0.7-1.8 0.3-1.8 0.3-4.8-1.7-2.3 0.3-4.6 0.7-7 1-0.3 4.9-0.7 9.9-1 15q-1.5 0-3 0c0 18.5 0 37 0 56q-2.5 0-5 0c0-9.6 0-19.1 0-29q-2.5 0-5 0c0-20.1 0-40.3 0-61q-3 0-6 0c0-4.3 0-8.6 0-13-7.9 0-15.8 0-24 0 0 4.3 0 8.6 0 13-7.9 0-15.8 0-24 0 0 31.4 0 62.7 0 95-3.6 0-7.3 0-11 0 0-11.6 0-23.1 0-35q-2 0-4 0c0-19.8 0-39.6 0-60-2.6 0-5.3 0-8 0 0-4.3 0-8.6 0-13-2.6 0-5.3 0-8 0-0.3-3-0.7-5.9-1-9-4.3-1.8-4.3-1.8-8.9-1.1q-1 0.5-2.1 1.1c-0.3 2.3-0.7 4.6-1 7-2.6 0-5.3 0-8 0 0 4.9 0 9.9 0 15-5 0-9.9 0-15 0q0 2 0 4-3 0-6 0c0 9.9 0 19.8 0 30q-2.5 0-5 0c0-52.1 0-104.3 0-158-2.6 0-5.3 0-8 0q0-3 0-6c-6.3 0-12.5 0-19 0 0-5.6 0-11.2 0-17-3.6 0-7.3 0-11 0-0.1-2.6-0.1-2.6-0.1-5.3-0.4-4.7-0.4-4.7-3.6-7.9-4.4-1.1-7.3-0.4-11.6 0.9-2 1.3-2 1.3-2.5 4.4q-0.1 1.4-0.2 2.9c-2.6 0-5.3 0-8 0 0 7.6 0 15.2 0 23-3.3 0-6.6 0-10 0 0 32 0 64 0 97-6.3 0-12.5 0-19 0 0 5.3 0 10.6 0 16-5 0-9.9 0-15 0 0-5.9 0-11.9 0-18q-6.1 3.5-12.1 7.1-2.1 1.2-4.1 2.4-3 1.7-6 3.5-0.9 0.5-1.8 1.1c-2.5 1.5-5 2.9-7.4 4.7-2.6 1.2-2.6 1.2-11.6 1.2 0 18.1 0 36.3 0 55-5.9 0-11.9 0-18 0q0 3 0 6c-3.3 0-6.6 0-10 0 0 4 0 7.9 0 12-2.3 0-4.6 0-7 0 0-3.6 0-7.3 0-11-6.9 0-13.9 0-21 0 0 13.5 0 27.1 0 41q-2.5 0-5 0c0-18.1 0-36.3 0-55q-2 0-4 0c0-11.2 0-22.4 0-34q-2 0-4 0c0-1 0-1 0-2.1q0-4.7-0.1-9.4c0-1.6 0-1.6 0-3.3-0.2-6.8-1.1-10.2-5.6-15.3-2.4-3.5-1.9-7.3-1.7-11.4q0.1-1.2 0.1-2.5 0.1-3 0.3-6-2.1-0.3-4.2-0.6-1.1-0.2-2.3-0.4c-2.9 0-4.9 0.8-7.5 2q0.1 1.7 0.1 3.4c0.5 14.9 0.5 14.9-4.1 21.6q-0.5 0-1 0c0-5.3 0-10.6 0-16-7.9 0-15.8 0-24 0 0 5.3 0 10.6 0 16q-2 0-4 0c0 19.1 0 38.3 0 58q-2 0-4 0c0 8.6 0 17.2 0 26q-2.5 0-5 0c0-8.6 0-17.2 0-26q-1.5 0-3 0c0-11.2 0-22.4 0-34q-3 0-6 0c0-4 0-7.9 0-12-7.9 0-15.8 0-24 0 0 4 0 7.9 0 12-8.3 0-16.5 0-25 0 0 5.6 0 11.2 0 17q-2 1-4 2c0 4.9 0 9.9 0 15-4 0-7.9 0-12 0 0-39.6 0-79.2 0-120q-3 0-6 0c0-6.9 0-13.9 0-21-7.9 0-15.8 0-24 0 0 6.6 0 13.2 0 20-7.9 0-15.8 0-24 0 0 40.6 0 81.2 0 123-2.6 0-5.3 0-8 0 0-28.1 0-56.1 0-85q1 0 2 0 0-3 0-6c-2.6 0-5.3 0-8 0 0-5.9 0-11.9 0-18-3.3 0-6.6 0-10 0 0-4 0-7.9 0-12-7.5-2.7-7.5-2.7-15.3-2.2-3.3 2.7-3.2 3.7-3.6 7.9q0 2.6-0.1 5.3c-4 0-7.9 0-12 0 0 6.6 0 13.2 0 20-6.3 0-12.5 0-19 0q0 2.5 0 5c-3 0-5.9 0-9 0 0 31.3 0 62.7 0 95q-2.5 0-5 0c0-15.2 0-30.4 0-46-3.3 0-6.6 0-10 0 0-2.6 0-5.3 0-8q2 0 4 0-0.1-3.4-0.3-6.9 0-1.9-0.1-3.8c-0.2-3.3-0.2-3.3-2.5-4.8-3.6-0.9-6.8-0.1-10.1 1.5-0.5 3.3-0.5 3.3-0.6 7.1q-0.1 1.9-0.3 3.9 0 1.5-0.1 3 1.5 0 3 0c0 2.6 0 5.3 0 8-2.6 0-5.3 0-8 0 0-5.3 0-10.6 0-16-3.3 0-6.6 0-10 0 0-22.1 0-44.2 0-67-8.6 0-17.2 0-26 0 0-7.3 0-14.5 0-22-7.9 0-15.8 0-24 0 0 7.3 0 14.5 0 22q-2 0-4 0c0 5.9 0 11.9 0 18-5.6 0-11.2 0-17 0 0 6.3 0 12.5 0 19q-2 0-4 0c0-31.7 0-63.4 0-96-5.3 0-10.6 0-16 0q0-2.6 0-5.2 0-3.4-0.1-6.9 0.1-1.7 0.1-3.4c-0.1-5.7-0.3-9.6-4.3-13.9-1.7-1.7-1.7-1.7-3.7-2.6-3.2 0.3-5 1.5-7.2 3.8-4.1 5.1-3.7 10.8-3.7 17.1q0 1.8 0 3.6-0.1 4.2-0.1 8.5c-4.9 0-9.9 0-15 0q0 3 0 6c-2.3 0-4.6 0-7 0 0 73.9 0 147.8 0 224-11.6 0-23.1 0-35 0 0-18.1 0-36.3 0-55q-2.5 0-5 0c0-31.7 0-63.4 0-96-2.3 0-4.6 0-7 0q0-2.5 0-5c-4.9 0-9.9 0-15 0 0-6.6 0-13.2 0-20-2.6 0-5.3 0-8 0 0-4 0-7.9 0-12-3.8-2-3.8-2-7-3-2.8 0.8-2.8 0.8-5 3-0.5 2.8-0.8 4.9-0.8 7.7q-0.1 1-0.1 2.1-0.1 2.6-0.1 5.2c-2.3 0-4.6 0-7 0 0 5.9 0 11.9 0 18-3.3 0-6.6 0-10 0 0 54.1 0 108.2 0 164-2.3 0-4.6 0-7 0 0-19.8 0-39.6 0-60q1 0 2 0 0-2 0-4-3 0-6 0c0-3.6 0-7.3 0-11-6.3 0-12.5 0-19 0 0 3.6 0 7.3 0 11-3.3 0-6.6 0-10 0q-0.1-1.5-0.1-3c-0.2-1.9-0.2-1.9-0.3-3.9q-0.1-1.9-0.2-3.8c-0.1-3.4-0.1-3.4-2.4-5.3-2.1-0.3-2.1-0.3-4.4-0.2q-1.2-0.1-2.4-0.1c-2.5 0.2-2.5 0.2-5.2 2.3q-1-1-2-2c-1.9-0.3-1.9-0.3-4-0.2q-1-0.1-2.1-0.1c-2.1 0.1-2.1 0.1-3.9 2.3q-0.4 3.6-0.6 7.1c-0.1 1.9-0.1 1.9-0.3 3.9 0 1.5 0 1.5-0.1 3q-2 0-4 0 0 2 0 4 1 0 2 0c0 28.4 0 56.8 0 86-2.3 0-4.6 0-7 0 0-28.4 0-56.8 0-86q1 0 2 0 0-2 0-4-3 0-6 0c0-4 0-7.9 0-12-5.9 0-11.9 0-18 0 0 3.6 0 7.3 0 11-3.6 0-7.3 0-11 0-0.5-7.4-0.5-7.4-1-15q-2.4-0.1-4.8-0.1-1.3-0.1-2.7-0.1c-2.8 0-2.8 0-5.5 2.2q-1-1-2-2c-1.9-0.3-1.9-0.3-4-0.2q-1-0.1-2.1-0.1c-2.1 0.1-2.1 0.1-3.9 2.3q-0.4 3.6-0.6 7.1c-0.1 1.9-0.1 1.9-0.3 3.9 0 1.5 0 1.5-0.1 3q-1.5 0-3 0c0 18.1 0 36.3 0 55q-2.5 0-5 0c0-54.4 0-108.9 0-165q1 0 2 0 0-2.5 0-5c-2.6 0-5.3 0-8 0 0-6.3 0-12.5 0-19-9.2 0-18.5 0-28 0 0 6.3 0 12.5 0 19-9.6 0-19.1 0-29 0 0 56.1 0 112.2 0 170-4 0-7.9 0-12 0 0-28.1 0-56.1 0-85q1 0 2 0 0-2 0-4c-2.3 0-4.6 0-7 0 0-4.6 0-9.2 0-14-2.3 0-4.6 0-7 0 0-55.1 0-110.2 0-167z"/>
</svg>